<svg version="1.1" id="Layer_1" xmlns="http://www.w3.org/2000/svg" xmlns:xlink="http://www.w3.org/1999/xlink" x="0px" y="0px"
	 width="100%" viewBox="0 0 517 962" enable-background="new 0 0 517 962" xml:space="preserve">
<path fill="#000000" opacity="1.000000" stroke="none" 
	d="
M492.000000,0.999997 
	C500.662933,1.000000 509.325836,1.000000 517.994385,1.000000 
	C518.000000,320.358246 518.000000,639.716492 517.668396,959.529053 
	C516.936646,959.768799 516.279175,959.640259 516.174316,959.326843 
	C514.027039,952.909180 511.942841,946.470337 509.909058,939.650757 
	C509.291840,937.138733 508.764069,934.947571 507.902710,932.896606 
	C505.379364,926.888611 502.723175,920.936462 500.178314,914.624207 
	C496.436249,902.855591 492.634888,891.425171 488.890259,879.611267 
	C488.631470,878.318115 488.300842,877.413330 488.002808,876.497986 
	C483.712097,863.318787 479.425751,850.138123 475.078552,836.549866 
	C471.370575,823.409302 467.722443,810.676697 464.046478,797.548828 
	C461.283752,786.759521 458.548828,776.365479 455.751526,765.604858 
	C453.462158,757.023865 451.211121,748.815918 449.018219,740.592407 
	C447.901978,736.406433 446.890381,732.192444 445.900696,727.595154 
	C444.978485,722.989868 443.978210,718.782593 442.997528,714.570801 
	C441.005859,706.017029 439.024750,697.460693 437.022339,688.529053 
	C436.375092,686.712769 435.443848,685.328674 435.164642,683.823669 
	C433.632874,675.567322 432.260895,667.281250 430.903320,658.579346 
	C429.792419,651.084900 428.728088,643.994629 427.391571,636.955933 
	C426.498077,632.250610 425.217621,627.618835 424.060822,622.499390 
	C423.988586,619.213928 424.261230,616.344360 423.895691,613.558533 
	C421.340881,594.088745 418.264771,574.678955 416.124786,555.165649 
	C414.187531,537.500793 413.225525,519.728943 411.906189,501.551819 
	C411.263702,473.400940 410.548523,445.702484 409.906067,417.575165 
	C410.323059,411.598145 410.766663,406.053802 410.979767,400.500641 
	C411.144714,396.201874 410.791779,391.877228 411.069275,387.589996 
	C411.880981,375.049927 412.892853,362.522827 413.894836,349.545532 
	C414.585052,342.275726 415.208954,335.451202 415.827789,328.626190 
	C416.569183,320.449280 417.306213,312.271973 418.395874,303.858826 
	C419.787201,294.181213 420.704773,284.723907 421.909760,275.303345 
	C422.777069,268.522583 424.027588,261.790771 425.445923,254.811050 
	C427.706726,243.360748 429.606354,232.132614 431.558472,220.913620 
	C432.947083,212.933136 434.406494,204.964981 436.017029,196.640396 
	C437.787476,189.763794 439.526215,183.269745 440.901642,176.699615 
	C441.630646,173.217316 441.728546,169.602890 442.434601,165.893829 
	C443.185913,164.201721 443.613983,162.663910 444.330444,160.985382 
	C444.691620,160.236282 444.764343,159.627914 444.903381,158.707062 
	C444.993103,157.969330 445.016510,157.544098 445.351257,156.951920 
	C445.716766,155.868668 445.770935,154.952347 446.003052,153.681870 
	C450.171722,138.230270 454.162415,123.132828 458.478027,107.830856 
	C458.879852,106.802399 458.816742,105.935555 459.054260,105.160873 
	C463.894440,89.373177 468.765991,73.595100 473.638031,57.817184 
	C475.873871,50.576538 478.043976,43.314285 480.386047,36.108032 
	C484.195953,24.385399 488.122620,12.700704 492.000000,0.999997 
z"/>
<path fill="#000000" opacity="1.000000" stroke="none" 
	d="
M6.999996,963.000000 
	C5.000864,963.000000 3.001728,963.000000 1.001296,963.000000 
	C1.000000,644.305298 1.000000,325.610596 1.261611,6.117779 
	C2.105176,6.079957 2.885784,6.758262 3.238656,7.613128 
	C7.194636,17.196878 11.096874,26.802906 14.988880,36.412941 
	C18.311401,44.616821 21.601818,52.833706 24.948112,61.436775 
	C29.165632,73.889671 33.419815,85.924240 37.493797,98.019508 
	C41.084705,108.680573 44.474323,119.409431 47.975868,130.507019 
	C48.334816,132.307678 48.624657,133.722595 49.013630,135.109711 
	C53.961830,152.755188 58.924255,170.396652 63.934135,188.454193 
	C64.493530,191.571838 64.939087,194.288040 65.520622,196.974808 
	C68.669922,211.524979 71.840645,226.070572 75.029999,240.612030 
	C76.376144,246.749557 77.785965,252.873108 79.098175,259.422974 
	C79.347816,261.422211 79.747658,262.989990 79.972221,264.582550 
	C83.333862,288.421753 86.650810,312.267242 90.037521,336.102875 
	C90.604057,340.090149 91.449776,344.037689 92.097595,348.452545 
	C92.683830,355.589142 93.460602,362.267548 93.968964,368.966339 
	C95.052162,383.239594 96.244659,397.511627 96.926086,411.806366 
	C97.588333,425.698761 97.667526,439.618927 98.004059,453.526917 
	C98.056290,455.685730 98.115578,457.844360 98.100700,460.467102 
	C98.074814,474.955811 98.119827,488.980469 98.093086,503.468018 
	C97.736473,513.942261 97.451614,523.953613 97.101158,534.420593 
	C96.412285,544.581543 95.789001,554.286865 95.093994,564.445312 
	C94.403519,574.931030 93.784760,584.963562 93.080238,595.410645 
	C92.663612,597.568604 92.227875,599.299683 92.021217,601.057739 
	C91.357201,606.706726 90.777809,612.365723 90.101059,618.460083 
	C89.811539,621.016113 89.608360,623.135437 89.358124,625.249146 
	C88.302567,634.165344 87.232986,643.079956 86.096115,652.410583 
	C84.320686,664.531860 82.617661,676.237732 80.578629,688.174561 
	C78.884132,696.603088 77.525642,704.800598 76.096474,713.405762 
	C75.005768,719.506165 73.985748,725.198914 72.724464,730.984375 
	C72.378426,731.377197 72.273651,731.677185 72.104523,732.314331 
	C72.087402,733.104004 72.134636,733.556519 72.097824,734.405518 
	C71.071182,739.207031 70.128586,743.612122 69.116562,748.418762 
	C67.752953,754.879761 66.458755,760.939148 65.085564,767.389709 
	C63.061665,775.847961 61.116764,783.915100 59.091217,792.374390 
	C57.060238,800.517029 55.109917,808.267517 53.080177,816.400024 
	C51.387222,822.538391 49.773685,828.294678 48.110626,834.282104 
	C48.061111,834.513367 48.166832,834.974365 48.024738,835.280396 
	C47.642765,836.390564 47.402885,837.194824 47.084877,838.381714 
	C45.060207,845.178284 43.113670,851.592102 41.097855,858.397766 
	C32.788414,884.301270 24.577278,909.822388 16.292797,935.319702 
	C13.285353,944.575745 10.102692,953.774902 6.999996,963.000000 
z"/>
<path fill="#F6610A" opacity="1.000000" stroke="none" 
	d="
M24.906435,61.044838 
	C21.601818,52.833706 18.311401,44.616821 14.988880,36.412941 
	C11.096874,26.802906 7.194636,17.196878 3.238656,7.613128 
	C2.885784,6.758262 2.105176,6.079957 1.261611,5.659825 
	C1.000000,4.356472 1.000000,2.712944 1.000000,1.000000 
	C9.687465,1.000000 18.375071,1.000000 27.684658,1.315577 
	C28.822271,2.024472 29.286482,2.529383 29.861300,2.794258 
	C37.658993,6.387426 45.576206,9.739083 53.249710,13.578484 
	C59.892803,16.902327 65.997498,21.416332 72.824387,24.228945 
	C80.784378,27.508387 89.012070,29.324633 96.626915,34.324944 
	C106.779030,40.991352 118.738976,44.880657 129.844391,50.127918 
	C136.996094,53.507065 143.956879,57.290073 151.106583,60.673717 
	C154.056305,62.069698 157.436218,62.574978 160.347046,64.031715 
	C173.942810,70.835785 187.427780,77.860786 200.983124,84.746239 
	C209.648697,89.147926 218.330368,93.521286 227.072632,97.767754 
	C237.674866,102.917694 248.308472,108.007126 259.005219,112.957008 
	C266.316650,116.340355 273.744202,119.475243 281.148773,122.653809 
	C285.551422,124.543732 290.092712,126.127434 294.423553,128.163803 
	C300.357361,130.953918 306.168854,134.007553 311.998138,137.015411 
	C316.609650,139.394913 321.085785,142.050812 325.769623,144.272873 
	C334.136780,148.242310 342.619995,151.966721 351.044769,155.815216 
	C354.321869,157.312241 357.624756,158.766602 360.820618,160.424057 
	C364.337280,162.247879 367.637146,164.512756 371.218750,166.184128 
	C383.189209,171.770233 395.782166,176.272705 407.061920,182.993942 
	C413.744934,186.976135 422.724915,186.720764 427.492981,194.077209 
	C427.842163,194.615906 429.017883,194.607758 429.800720,194.878632 
	C431.814484,195.575439 433.823456,196.286179 435.834290,196.991333 
	C434.406494,204.964981 432.947083,212.933136 431.558472,220.913620 
	C429.606354,232.132614 427.706726,243.360748 425.036255,254.801697 
	C422.194580,253.769730 420.107239,252.510834 418.005737,251.276016 
	C416.686554,250.500854 415.415619,249.579834 414.002350,249.040436 
	C409.569092,247.348450 404.960876,246.069458 400.641479,244.136490 
	C395.720367,241.934235 391.037140,239.200409 386.475159,236.815063 
	C385.522858,235.373291 384.550323,233.900848 383.577759,232.428391 
	C379.635162,235.307709 377.262115,231.387527 374.264526,230.248734 
	C369.927032,228.600906 365.706055,226.608536 361.296265,225.198120 
	C355.209442,223.251297 349.531311,220.752823 345.978302,215.170227 
	C344.109192,212.233444 341.940491,211.709305 338.779846,212.588852 
	C337.183746,213.033020 334.109192,213.173355 333.833282,212.533081 
	C332.142395,208.609406 328.382385,208.229248 325.284790,206.607407 
	C319.290619,203.469025 314.597382,197.355316 306.668427,198.706299 
	C306.147949,198.794968 305.187408,198.323700 304.970551,197.860504 
	C302.635742,192.874176 297.023468,193.715134 293.281769,191.228485 
	C290.747253,189.544098 287.445160,188.855057 285.232819,186.883270 
	C281.964691,183.970505 279.759613,183.440903 277.883942,189.367065 
	C276.708405,183.611893 275.213226,180.043259 269.393066,181.505554 
	C268.044830,181.844284 265.871033,180.455170 264.630280,179.278061 
	C262.996765,177.728363 261.909973,175.602356 260.594971,173.733856 
	C259.201874,174.428360 258.124634,174.965408 256.301727,175.874176 
	C256.575409,170.530014 254.585068,170.315170 250.156799,170.902115 
	C246.386032,171.401901 239.657242,169.710266 238.695160,167.246964 
	C236.421448,161.425400 232.356567,160.996414 227.734299,160.071609 
	C226.515732,159.827805 225.490646,158.732758 224.306122,158.179810 
	C221.493149,156.866730 218.454102,154.305573 215.838196,154.664825 
	C210.459915,155.403397 206.327026,153.506134 203.335785,149.992279 
	C199.331741,145.288696 193.831543,144.283661 188.708145,142.161743 
	C186.108963,141.085266 182.875443,140.523514 181.109741,138.628555 
	C173.701233,130.677826 161.703339,131.654221 154.117828,124.277328 
	C153.918396,124.083397 153.484344,124.098267 153.155487,124.074585 
	C144.177887,123.428314 137.370987,118.564354 131.169861,112.630150 
	C128.752960,110.317284 126.387863,108.868576 122.729729,109.590477 
	C121.384575,109.855934 118.835289,108.424530 118.229080,107.119606 
	C116.936058,104.336258 115.282333,103.975746 112.645966,104.509529 
	C111.450638,104.751564 109.895363,104.605927 108.857788,104.014435 
	C101.343086,99.730606 93.967972,95.200569 86.426025,90.966965 
	C84.864441,90.090385 82.743439,90.274582 80.960876,89.713676 
	C77.583763,88.651047 73.157532,88.362289 71.144722,86.038849 
	C66.458969,80.629959 59.703987,79.478004 53.954765,77.618355 
	C48.528698,75.863243 43.571579,73.303398 40.953426,69.465324 
	C36.743942,63.294437 31.828913,60.866634 24.906435,61.044838 
z"/>
<path fill="#F75205" opacity="1.000000" stroke="none" 
	d="
M458.153107,108.035378 
	C454.162415,123.132828 450.171722,138.230270 445.839966,153.960907 
	C445.345917,155.435684 445.192932,156.277267 445.039978,157.118851 
	C445.016510,157.544098 444.993103,157.969330 444.745483,158.944901 
	C444.361542,160.038849 444.201813,160.582474 444.042053,161.126083 
	C443.613983,162.663910 443.185913,164.201721 442.077026,165.744659 
	C438.778778,164.803146 436.086975,164.021164 433.557861,162.878876 
	C426.139923,159.528473 418.833344,155.929596 411.393646,152.629852 
	C405.235413,149.898468 398.736511,147.868073 392.767578,144.791733 
	C382.002258,139.243347 371.520477,133.144791 360.917877,127.280380 
	C360.775269,127.201500 360.595795,127.192528 360.442657,127.128952 
	C354.164764,124.523506 347.791443,122.123077 341.632385,119.261612 
	C331.124237,114.379555 320.775696,109.155106 310.310730,104.178322 
	C304.314117,101.326546 296.853394,101.266190 292.762268,94.756378 
	C292.353180,94.105438 290.953583,94.056442 290.000854,93.770874 
	C279.264374,90.552864 269.351318,85.492722 259.567230,80.151138 
	C256.079987,78.247276 252.762207,75.986404 249.155457,74.356850 
	C239.201584,69.859634 229.029602,65.836990 219.140228,61.207237 
	C205.311844,54.733425 191.690292,47.819324 177.925308,41.208031 
	C167.205750,36.059452 156.402908,31.084192 145.635971,26.034323 
	C134.513229,20.817577 123.260834,15.855075 112.325005,10.272360 
	C107.549919,7.834689 103.421875,4.129550 99.000000,1.000001 
	C145.687561,1.000000 192.375122,1.000000 239.629730,1.338910 
	C246.821808,5.544785 253.253845,9.802678 260.115570,13.190152 
	C271.346375,18.734531 282.875488,23.672121 294.244141,28.940374 
	C307.103394,34.899372 319.991821,40.802025 332.740173,46.991577 
	C342.420349,51.691471 351.850433,56.903931 361.487213,61.696480 
	C368.712128,65.289574 376.122437,68.507988 383.386871,72.024086 
	C388.816711,74.652222 394.113159,77.555275 399.532135,80.206879 
	C402.507690,81.662888 405.618561,82.841255 408.660370,84.163322 
	C415.358215,87.074432 422.162903,89.767998 428.719604,92.968994 
	C438.622345,97.803551 448.350647,102.995384 458.153107,108.035378 
z"/>
<path fill="#F74B03" opacity="1.000000" stroke="none" 
	d="
M458.478027,107.830856 
	C448.350647,102.995384 438.622345,97.803551 428.719604,92.968994 
	C422.162903,89.767998 415.358215,87.074432 408.660370,84.163322 
	C405.618561,82.841255 402.507690,81.662888 399.532135,80.206879 
	C394.113159,77.555275 388.816711,74.652222 383.386871,72.024086 
	C376.122437,68.507988 368.712128,65.289574 361.487213,61.696480 
	C351.850433,56.903931 342.420349,51.691471 332.740173,46.991577 
	C319.991821,40.802025 307.103394,34.899372 294.244141,28.940374 
	C282.875488,23.672121 271.346375,18.734531 260.115570,13.190152 
	C253.253845,9.802678 246.821808,5.544785 240.098389,1.338910 
	C323.687561,1.000000 407.375122,1.000000 491.531311,0.999997 
	C488.122620,12.700704 484.195953,24.385399 480.386047,36.108032 
	C478.043976,43.314285 475.873871,50.576538 473.638031,57.817184 
	C468.765991,73.595100 463.894440,89.373177 459.054260,105.160873 
	C458.816742,105.935555 458.879852,106.802399 458.478027,107.830856 
z"/>
<path fill="#E60101" opacity="1.000000" stroke="none" 
	d="
M7.468653,963.000000 
	C10.102692,953.774902 13.285353,944.575745 16.292797,935.319702 
	C24.577278,909.822388 32.788414,884.301270 41.399887,858.523987 
	C48.743179,862.317810 55.504555,866.807251 62.731281,870.346375 
	C77.495979,877.576965 92.570213,884.172546 107.404617,891.264709 
	C119.825272,897.202881 132.006119,903.643433 144.436569,909.560242 
	C162.720505,918.263184 181.148300,926.663330 199.484085,935.258057 
	C214.350571,942.226501 229.220871,949.190857 243.977631,956.386292 
	C247.545135,958.125916 250.671021,960.771240 254.000000,963.000000 
	C171.979111,963.000000 89.958206,963.000000 7.468653,963.000000 
z"/>
<path fill="#F65908" opacity="1.000000" stroke="none" 
	d="
M98.531342,1.000001 
	C103.421875,4.129550 107.549919,7.834689 112.325005,10.272360 
	C123.260834,15.855075 134.513229,20.817577 145.635971,26.034323 
	C156.402908,31.084192 167.205750,36.059452 177.925308,41.208031 
	C191.690292,47.819324 205.311844,54.733425 219.140228,61.207237 
	C229.029602,65.836990 239.201584,69.859634 249.155457,74.356850 
	C252.762207,75.986404 256.079987,78.247276 259.567230,80.151138 
	C269.351318,85.492722 279.264374,90.552864 290.000854,93.770874 
	C290.953583,94.056442 292.353180,94.105438 292.762268,94.756378 
	C296.853394,101.266190 304.314117,101.326546 310.310730,104.178322 
	C320.775696,109.155106 331.124237,114.379555 341.632385,119.261612 
	C347.791443,122.123077 354.164764,124.523506 360.442657,127.128952 
	C360.595795,127.192528 360.775269,127.201500 360.917877,127.280380 
	C371.520477,133.144791 382.002258,139.243347 392.767578,144.791733 
	C398.736511,147.868073 405.235413,149.898468 411.393646,152.629852 
	C418.833344,155.929596 426.139923,159.528473 433.557861,162.878876 
	C436.086975,164.021164 438.778778,164.803146 441.753784,165.898926 
	C441.728546,169.602890 441.630646,173.217316 440.901642,176.699615 
	C439.526215,183.269745 437.787476,189.763794 436.017029,196.640411 
	C433.823456,196.286179 431.814484,195.575439 429.800720,194.878632 
	C429.017883,194.607758 427.842163,194.615906 427.492981,194.077209 
	C422.724915,186.720764 413.744934,186.976135 407.061920,182.993942 
	C395.782166,176.272705 383.189209,171.770233 371.218750,166.184128 
	C367.637146,164.512756 364.337280,162.247879 360.820618,160.424057 
	C357.624756,158.766602 354.321869,157.312241 351.044769,155.815216 
	C342.619995,151.966721 334.136780,148.242310 325.769623,144.272873 
	C321.085785,142.050812 316.609650,139.394913 311.998138,137.015411 
	C306.168854,134.007553 300.357361,130.953918 294.423553,128.163803 
	C290.092712,126.127434 285.551422,124.543732 281.148773,122.653809 
	C273.744202,119.475243 266.316650,116.340355 259.005219,112.957008 
	C248.308472,108.007126 237.674866,102.917694 227.072632,97.767754 
	C218.330368,93.521286 209.648697,89.147926 200.983124,84.746239 
	C187.427780,77.860786 173.942810,70.835785 160.347046,64.031715 
	C157.436218,62.574978 154.056305,62.069698 151.106583,60.673717 
	C143.956879,57.290073 136.996094,53.507065 129.844391,50.127918 
	C118.738976,44.880657 106.779030,40.991352 96.626915,34.324944 
	C89.012070,29.324633 80.784378,27.508387 72.824387,24.228945 
	C65.997498,21.416332 59.892803,16.902327 53.249710,13.578484 
	C45.576206,9.739083 37.658993,6.387426 29.861300,2.794258 
	C29.286482,2.529383 28.822271,2.024472 28.153320,1.315577 
	C51.354229,1.000000 74.708458,1.000000 98.531342,1.000001 
z"/>
<path fill="#EA2506" opacity="1.000000" stroke="none" 
	d="
M59.171875,791.982239 
	C61.116764,783.915100 63.061665,775.847961 65.447815,767.421692 
	C73.599129,770.544983 81.355812,773.928467 89.006966,777.535828 
	C97.732040,781.649414 106.341080,786.008301 115.039474,790.179443 
	C133.019882,798.801636 151.054321,807.311523 169.010147,815.984375 
	C178.418304,820.528564 187.624954,825.493713 197.068817,829.959534 
	C211.782562,836.917480 226.691040,843.464478 241.390076,850.452576 
	C264.369965,861.377625 287.250793,872.511230 310.160614,883.583374 
	C335.613190,895.884338 361.051544,908.214661 386.495361,920.533691 
	C391.865906,923.133972 397.206940,925.797119 402.608643,928.330811 
	C409.954254,931.776306 417.362854,935.087402 424.712280,938.524841 
	C434.326843,943.021729 444.040039,947.334656 453.460052,952.210999 
	C459.539307,955.357971 465.168915,959.373596 471.000000,963.000000 
	C451.979095,963.000000 432.958221,963.000000 413.374084,962.664062 
	C411.539093,961.364746 410.387115,960.150818 408.977020,959.476868 
	C394.879761,952.739380 380.686157,946.201904 366.625397,939.389954 
	C347.638275,930.191345 328.805237,920.673767 309.791656,911.531006 
	C293.010590,903.461792 276.011414,895.846436 259.221832,887.794495 
	C243.952972,880.471924 228.899139,872.700989 213.632462,865.373779 
	C202.106979,859.842102 190.339493,854.816284 178.784088,849.344910 
	C169.771393,845.077515 160.977020,840.350586 151.983765,836.040344 
	C133.071152,826.976074 114.089684,818.055542 95.140175,809.068298 
	C83.147263,803.380249 71.161079,797.678040 59.171875,791.982239 
z"/>
<path fill="#E91B04" opacity="1.000000" stroke="none" 
	d="
M59.091225,792.374390 
	C71.161079,797.678040 83.147263,803.380249 95.140175,809.068298 
	C114.089684,818.055542 133.071152,826.976074 151.983765,836.040344 
	C160.977020,840.350586 169.771393,845.077515 178.784088,849.344910 
	C190.339493,854.816284 202.106979,859.842102 213.632462,865.373779 
	C228.899139,872.700989 243.952972,880.471924 259.221832,887.794495 
	C276.011414,895.846436 293.010590,903.461792 309.791656,911.531006 
	C328.805237,920.673767 347.638275,930.191345 366.625397,939.389954 
	C380.686157,946.201904 394.879761,952.739380 408.977020,959.476868 
	C410.387115,960.150818 411.539093,961.364746 412.905457,962.664062 
	C394.312439,963.000000 375.624878,963.000000 356.348938,962.682129 
	C354.903412,961.611145 354.157806,960.636841 353.171631,960.139587 
	C343.952850,955.491760 334.760437,950.782837 325.429260,946.368774 
	C310.253387,939.189819 294.904205,932.375244 279.765411,925.120483 
	C261.913879,916.565674 244.250107,907.619812 226.426224,899.006287 
	C212.484207,892.268677 198.382874,885.861084 184.426193,879.153259 
	C173.786896,874.039917 163.328735,868.548523 152.673630,863.469482 
	C134.809555,854.953918 116.815521,846.711060 98.946404,838.205933 
	C83.633041,830.917297 68.418076,823.421936 53.159595,816.017944 
	C55.109917,808.267517 57.060238,800.517029 59.091225,792.374390 
z"/>
<path fill="#EB2C07" opacity="1.000000" stroke="none" 
	d="
M471.468658,963.000000 
	C465.168915,959.373596 459.539307,955.357971 453.460052,952.210999 
	C444.040039,947.334656 434.326843,943.021729 424.712280,938.524841 
	C417.362854,935.087402 409.954254,931.776306 402.608643,928.330811 
	C397.206940,925.797119 391.865906,923.133972 386.495361,920.533691 
	C361.051544,908.214661 335.613190,895.884338 310.160614,883.583374 
	C287.250793,872.511230 264.369965,861.377625 241.390076,850.452576 
	C226.691040,843.464478 211.782562,836.917480 197.068817,829.959534 
	C187.624954,825.493713 178.418304,820.528564 169.010147,815.984375 
	C151.054321,807.311523 133.019882,798.801636 115.039474,790.179443 
	C106.341080,786.008301 97.732040,781.649414 89.006966,777.535828 
	C81.355812,773.928467 73.599129,770.544983 65.526817,767.030579 
	C66.458755,760.939148 67.752953,754.879761 69.412201,748.578491 
	C80.937599,753.849243 92.086006,759.386230 103.262466,764.865906 
	C110.732864,768.528564 118.232658,772.131897 125.737907,775.722900 
	C139.079056,782.106079 152.433167,788.462219 165.784134,794.824829 
	C176.554947,799.957947 187.327301,805.087646 198.102264,810.211914 
	C206.310287,814.115417 214.580368,817.893555 222.719650,821.935303 
	C232.238647,826.662231 241.554413,831.803345 251.119995,836.430603 
	C271.903809,846.484741 292.800598,856.304993 313.631592,866.261841 
	C329.820160,873.999573 345.973572,881.810852 362.152344,889.569153 
	C387.014343,901.491333 411.841583,913.487244 436.764984,925.279846 
	C457.338440,935.014282 478.094666,944.363892 498.620605,954.195740 
	C503.391510,956.481018 507.556305,960.031616 512.000000,963.000000 
	C498.645782,963.000000 485.291534,963.000000 471.468658,963.000000 
z"/>
<path fill="#EC3108" opacity="1.000000" stroke="none" 
	d="
M512.499512,963.000000 
	C507.556305,960.031616 503.391510,956.481018 498.620605,954.195740 
	C478.094666,944.363892 457.338440,935.014282 436.764984,925.279846 
	C411.841583,913.487244 387.014343,901.491333 362.152344,889.569153 
	C345.973572,881.810852 329.820160,873.999573 313.631592,866.261841 
	C292.800598,856.304993 271.903809,846.484741 251.119995,836.430603 
	C241.554413,831.803345 232.238647,826.662231 222.719650,821.935303 
	C214.580368,817.893555 206.310287,814.115417 198.102264,810.211914 
	C187.327301,805.087646 176.554947,799.957947 165.784134,794.824829 
	C152.433167,788.462219 139.079056,782.106079 125.737907,775.722900 
	C118.232658,772.131897 110.732864,768.528564 103.262466,764.865906 
	C92.086006,759.386230 80.937599,753.849243 69.481621,748.176941 
	C70.128586,743.612122 71.071182,739.207031 72.420044,734.556396 
	C79.025620,737.077515 85.313042,739.664490 91.403793,742.652344 
	C100.800346,747.261963 109.943405,752.398193 119.407066,756.858948 
	C136.966263,765.135681 154.778748,772.877136 172.304428,781.222351 
	C196.789688,792.881531 221.107605,804.892151 245.499512,816.747437 
	C252.974258,820.380371 260.489075,823.932434 267.927765,827.637512 
	C276.389191,831.852112 284.682495,836.416870 293.235535,840.431763 
	C305.262726,846.077332 317.566711,851.136230 329.562500,856.844971 
	C346.805359,865.050781 363.803162,873.771484 381.043610,881.982544 
	C397.510529,889.825195 414.214996,897.168396 430.699402,904.975281 
	C442.255859,910.448425 453.581787,916.406067 465.076599,922.012146 
	C477.911224,928.271545 490.774841,934.477478 503.754639,940.425537 
	C505.383545,941.171936 507.796448,940.207520 509.846069,940.035767 
	C511.942841,946.470337 514.027039,952.909180 516.174316,959.326843 
	C516.279175,959.640259 516.936646,959.768799 517.668396,959.991699 
	C518.751343,965.031372 514.887878,962.369873 512.499512,963.000000 
z"/>
<path fill="#E81303" opacity="1.000000" stroke="none" 
	d="
M53.080177,816.400024 
	C68.418076,823.421936 83.633041,830.917297 98.946404,838.205933 
	C116.815521,846.711060 134.809555,854.953918 152.673630,863.469482 
	C163.328735,868.548523 173.786896,874.039917 184.426193,879.153259 
	C198.382874,885.861084 212.484207,892.268677 226.426224,899.006287 
	C244.250107,907.619812 261.913879,916.565674 279.765411,925.120483 
	C294.904205,932.375244 310.253387,939.189819 325.429260,946.368774 
	C334.760437,950.782837 343.952850,955.491760 353.171631,960.139587 
	C354.157806,960.636841 354.903412,961.611145 355.880310,962.682129 
	C340.645782,963.000000 325.291534,963.000000 309.373596,962.664246 
	C308.155548,961.616760 307.636749,960.617859 306.826874,960.235718 
	C290.911438,952.725098 274.951813,945.308350 259.023102,937.825745 
	C246.086151,931.748535 233.142761,925.683228 220.265228,919.481812 
	C198.416199,908.959900 176.627411,898.313049 154.791992,887.762756 
	C144.020813,882.558411 133.177353,877.503479 122.411545,872.288208 
	C110.152061,866.349304 97.980392,860.228516 85.699348,854.335144 
	C75.983650,849.672852 66.203735,845.137268 56.358139,840.757080 
	C53.458065,839.466919 50.236965,838.898315 47.162994,837.999023 
	C47.402885,837.194824 47.642765,836.390564 48.092850,835.171509 
	C48.389614,834.497986 48.341980,834.262756 48.160149,834.050903 
	C49.773685,828.294678 51.387222,822.538391 53.080177,816.400024 
z"/>
<path fill="#E70A01" opacity="1.000000" stroke="none" 
	d="
M47.084866,838.381714 
	C50.236965,838.898315 53.458065,839.466919 56.358139,840.757080 
	C66.203735,845.137268 75.983650,849.672852 85.699348,854.335144 
	C97.980392,860.228516 110.152061,866.349304 122.411545,872.288208 
	C133.177353,877.503479 144.020813,882.558411 154.791992,887.762756 
	C176.627411,898.313049 198.416199,908.959900 220.265228,919.481812 
	C233.142761,925.683228 246.086151,931.748535 259.023102,937.825745 
	C274.951813,945.308350 290.911438,952.725098 306.826874,960.235718 
	C307.636749,960.617859 308.155548,961.616760 308.904938,962.664246 
	C290.979095,963.000000 272.958221,963.000000 254.468658,963.000000 
	C250.671021,960.771240 247.545135,958.125916 243.977631,956.386292 
	C229.220871,949.190857 214.350571,942.226501 199.484085,935.258057 
	C181.148300,926.663330 162.720505,918.263184 144.436569,909.560242 
	C132.006119,903.643433 119.825272,897.202881 107.404617,891.264709 
	C92.570213,884.172546 77.495979,877.576965 62.731281,870.346375 
	C55.504555,866.807251 48.743179,862.317810 41.469170,858.132202 
	C43.113670,851.592102 45.060207,845.178284 47.084866,838.381714 
z"/>
<path fill="#F68D18" opacity="1.000000" stroke="none" 
	d="
M98.171600,460.003082 
	C98.115578,457.844360 98.056290,455.685730 98.004059,453.526917 
	C97.667526,439.618927 97.588333,425.698761 96.926086,411.806366 
	C96.244659,397.511627 95.052162,383.239594 93.968964,368.966339 
	C93.460602,362.267548 92.683830,355.589142 92.399635,348.578400 
	C94.666336,349.579529 96.433968,351.159515 98.479744,352.184204 
	C107.978439,356.941620 117.552567,361.548584 127.103127,366.202332 
	C131.710556,368.447449 136.285767,370.764648 140.950943,372.883209 
	C144.106216,374.316071 147.522934,375.205292 150.597610,376.777863 
	C162.063309,382.641968 173.263962,389.051025 184.893127,394.561127 
	C196.068726,399.856415 207.801926,403.968781 219.019333,409.183319 
	C234.183670,416.232635 249.100525,423.815674 264.101593,431.214294 
	C272.078888,435.148773 279.999115,439.198883 287.965088,443.156616 
	C294.540833,446.423645 301.081238,449.772644 307.753540,452.831757 
	C317.114746,457.123749 326.748962,460.848663 335.959351,465.433075 
	C344.861816,469.864227 353.374176,475.078949 362.062439,479.941345 
	C362.495819,480.183899 362.973999,480.345734 363.428955,480.550415 
	C377.458405,486.861786 391.482635,493.184875 405.522095,499.473846 
	C407.588989,500.399689 409.727905,501.164764 411.833496,502.004272 
	C413.225525,519.728943 414.187531,537.500793 416.124786,555.165649 
	C418.264771,574.678955 421.340881,594.088745 423.895691,613.558533 
	C424.261230,616.344360 423.988586,619.213928 423.740723,622.623901 
	C419.877991,622.177490 416.074554,621.602722 412.735168,620.037781 
	C404.308899,616.089111 396.176300,611.516907 387.773926,607.513672 
	C366.474854,597.366150 345.067780,587.445374 323.752838,577.330811 
	C312.057678,571.781067 300.476044,565.992493 288.816772,560.366577 
	C276.552246,554.448608 264.248077,548.612854 251.976715,542.709045 
	C244.204727,538.969910 236.492554,535.105286 228.695129,531.420532 
	C221.935822,528.226440 215.018311,525.361572 208.304489,522.077759 
	C193.099274,514.640747 178.040497,506.902740 162.803329,499.532898 
	C145.468491,491.148468 128.053864,482.924133 110.570900,474.853394 
	C103.949486,471.796753 97.350189,469.102631 98.171600,460.003082 
z"/>
<path fill="#F68214" opacity="1.000000" stroke="none" 
	d="
M411.906189,501.551819 
	C409.727905,501.164764 407.588989,500.399689 405.522095,499.473846 
	C391.482635,493.184875 377.458405,486.861786 363.428955,480.550415 
	C362.973999,480.345734 362.495819,480.183899 362.062439,479.941345 
	C353.374176,475.078949 344.861816,469.864227 335.959351,465.433075 
	C326.748962,460.848663 317.114746,457.123749 307.753540,452.831757 
	C301.081238,449.772644 294.540833,446.423645 287.965088,443.156616 
	C279.999115,439.198883 272.078888,435.148773 264.101593,431.214294 
	C249.100525,423.815674 234.183670,416.232635 219.019333,409.183319 
	C207.801926,403.968781 196.068726,399.856415 184.893127,394.561127 
	C173.263962,389.051025 162.063309,382.641968 150.597610,376.777863 
	C147.522934,375.205292 144.106216,374.316071 140.950943,372.883209 
	C136.285767,370.764648 131.710556,368.447449 127.103127,366.202332 
	C117.552567,361.548584 107.978439,356.941620 98.479744,352.184204 
	C96.433968,351.159515 94.666336,349.579529 92.468536,348.129456 
	C91.449776,344.037689 90.604057,340.090149 90.037521,336.102875 
	C86.650810,312.267242 83.333862,288.421753 79.972221,264.582550 
	C79.747658,262.989990 79.347816,261.422211 79.497002,259.423370 
	C81.707962,259.890137 83.505806,260.686188 85.176773,261.692810 
	C86.400261,262.429840 87.335495,263.708679 88.607445,264.291870 
	C98.744896,268.940094 108.998520,273.338745 119.087334,278.088318 
	C131.828125,284.086334 144.472229,290.292084 157.106018,296.513855 
	C162.175873,299.010620 167.009750,301.997284 172.125534,304.387451 
	C179.303665,307.741180 186.676834,310.674622 193.908081,313.918243 
	C203.565887,318.250366 213.188110,322.663422 222.786942,327.124939 
	C230.709488,330.807251 238.675934,334.415833 246.441544,338.409821 
	C256.031219,343.341888 265.314941,348.874420 274.949158,353.712830 
	C284.812195,358.666138 294.877136,363.235107 304.983673,367.676453 
	C308.596161,369.263977 311.612732,373.022064 316.401611,371.323975 
	C317.040436,371.097504 318.211029,372.003571 318.986176,372.584290 
	C329.415161,380.398163 341.428009,385.191650 353.146606,390.542328 
	C366.864410,396.805878 380.598328,403.034210 394.324066,409.280457 
	C394.474548,409.348938 394.605713,409.458649 394.750885,409.540192 
	C399.778015,412.362122 404.805756,415.183014 409.833374,418.004059 
	C410.548523,445.702484 411.263702,473.400940 411.906189,501.551819 
z"/>
<path fill="#F67711" opacity="1.000000" stroke="none" 
	d="
M409.906067,417.575165 
	C404.805756,415.183014 399.778015,412.362122 394.750885,409.540192 
	C394.605713,409.458649 394.474548,409.348938 394.324066,409.280457 
	C380.598328,403.034210 366.864410,396.805878 353.146606,390.542328 
	C341.428009,385.191650 329.415161,380.398163 318.986176,372.584290 
	C318.211029,372.003571 317.040436,371.097504 316.401611,371.323975 
	C311.612732,373.022064 308.596161,369.263977 304.983673,367.676453 
	C294.877136,363.235107 284.812195,358.666138 274.949158,353.712830 
	C265.314941,348.874420 256.031219,343.341888 246.441544,338.409821 
	C238.675934,334.415833 230.709488,330.807251 222.786942,327.124939 
	C213.188110,322.663422 203.565887,318.250366 193.908081,313.918243 
	C186.676834,310.674622 179.303665,307.741180 172.125534,304.387451 
	C167.009750,301.997284 162.175873,299.010620 157.106018,296.513855 
	C144.472229,290.292084 131.828125,284.086334 119.087334,278.088318 
	C108.998520,273.338745 98.744896,268.940094 88.607445,264.291870 
	C87.335495,263.708679 86.400261,262.429840 85.176773,261.692810 
	C83.505806,260.686188 81.707962,259.890137 79.565674,259.003418 
	C77.785965,252.873108 76.376144,246.749557 75.029999,240.612030 
	C71.840645,226.070572 68.669922,211.524979 65.520622,196.974808 
	C64.939087,194.288040 64.493530,191.571838 64.263954,188.341705 
	C68.060631,185.170044 71.035233,187.220230 74.204964,188.764542 
	C85.488998,194.262192 96.845352,199.611282 108.144402,205.078461 
	C109.607651,205.786484 110.902565,206.846359 112.263756,207.760651 
	C118.726578,212.101654 125.499557,215.542786 133.267197,217.199738 
	C137.539581,218.111099 143.007858,219.434082 145.255890,222.522812 
	C149.496674,228.349426 155.719131,228.641464 161.187973,231.145157 
	C170.668427,235.485397 180.169708,239.795486 189.496536,244.450287 
	C195.075012,247.234390 200.070175,251.315414 205.805756,253.626785 
	C214.578629,257.162170 223.596161,259.538879 231.606964,265.320312 
	C236.978699,269.197113 244.372055,269.885773 250.582672,273.518280 
	C262.191559,280.308136 274.875122,285.244171 287.021210,291.137787 
	C295.256042,295.133545 303.076813,300.103790 311.550293,303.456818 
	C322.785675,307.902802 333.542694,313.033417 343.522644,319.825958 
	C344.314514,320.364929 345.409637,320.441406 346.338104,320.799530 
	C350.638306,322.458069 355.019989,323.943024 359.200684,325.864075 
	C364.332947,328.222443 369.251221,331.041901 374.340973,333.498352 
	C380.510956,336.476135 386.987732,338.889984 392.916992,342.274506 
	C398.792603,345.628387 404.045319,350.127045 411.477905,349.223633 
	C412.218689,349.133606 413.041534,349.718811 413.826294,349.990631 
	C412.892853,362.522827 411.880981,375.049927 411.069275,387.589996 
	C410.791779,391.877228 411.144714,396.201874 410.979767,400.500641 
	C410.766663,406.053802 410.323059,411.598145 409.906067,417.575165 
z"/>
<path fill="#F6690C" opacity="1.000000" stroke="none" 
	d="
M24.948112,61.436775 
	C31.828913,60.866634 36.743942,63.294437 40.953426,69.465324 
	C43.571579,73.303398 48.528698,75.863243 53.954765,77.618355 
	C59.703987,79.478004 66.458969,80.629959 71.144722,86.038849 
	C73.157532,88.362289 77.583763,88.651047 80.960876,89.713676 
	C82.743439,90.274582 84.864441,90.090385 86.426025,90.966965 
	C93.967972,95.200569 101.343086,99.730606 108.857788,104.014435 
	C109.895363,104.605927 111.450638,104.751564 112.645966,104.509529 
	C115.282333,103.975746 116.936058,104.336258 118.229080,107.119606 
	C118.835289,108.424530 121.384575,109.855934 122.729729,109.590477 
	C126.387863,108.868576 128.752960,110.317284 131.169861,112.630150 
	C137.370987,118.564354 144.177887,123.428314 153.155487,124.074585 
	C153.484344,124.098267 153.918396,124.083397 154.117828,124.277328 
	C161.703339,131.654221 173.701233,130.677826 181.109741,138.628555 
	C182.875443,140.523514 186.108963,141.085266 188.708145,142.161743 
	C193.831543,144.283661 199.331741,145.288696 203.335785,149.992279 
	C206.327026,153.506134 210.459915,155.403397 215.838196,154.664825 
	C218.454102,154.305573 221.493149,156.866730 224.306122,158.179810 
	C225.490646,158.732758 226.515732,159.827805 227.734299,160.071609 
	C232.356567,160.996414 236.421448,161.425400 238.695160,167.246964 
	C239.657242,169.710266 246.386032,171.401901 250.156799,170.902115 
	C254.585068,170.315170 256.575409,170.530014 256.301727,175.874176 
	C258.124634,174.965408 259.201874,174.428360 260.594971,173.733856 
	C261.909973,175.602356 262.996765,177.728363 264.630280,179.278061 
	C265.871033,180.455170 268.044830,181.844284 269.393066,181.505554 
	C275.213226,180.043259 276.708405,183.611893 277.883942,189.367065 
	C279.759613,183.440903 281.964691,183.970505 285.232819,186.883270 
	C287.445160,188.855057 290.747253,189.544098 293.281769,191.228485 
	C297.023468,193.715134 302.635742,192.874176 304.970551,197.860504 
	C305.187408,198.323700 306.147949,198.794968 306.668427,198.706299 
	C314.597382,197.355316 319.290619,203.469025 325.284790,206.607407 
	C328.382385,208.229248 332.142395,208.609406 333.833282,212.533081 
	C334.109192,213.173355 337.183746,213.033020 338.779846,212.588852 
	C341.940491,211.709305 344.109192,212.233444 345.978302,215.170227 
	C349.531311,220.752823 355.209442,223.251297 361.296265,225.198120 
	C365.706055,226.608536 369.927032,228.600906 374.264526,230.248734 
	C377.262115,231.387527 379.635162,235.307709 383.577759,232.428391 
	C384.550323,233.900848 385.522858,235.373291 386.475159,236.815063 
	C391.037140,239.200409 395.720367,241.934235 400.641479,244.136490 
	C404.960876,246.069458 409.569092,247.348450 414.002350,249.040436 
	C415.415619,249.579834 416.686554,250.500854 418.005737,251.276016 
	C420.107239,252.510834 422.194580,253.769730 424.697571,255.027786 
	C424.027588,261.790771 422.777069,268.522583 421.909760,275.303345 
	C420.704773,284.723907 419.787201,294.181213 418.119659,303.635681 
	C410.344147,300.134155 403.256531,296.486450 396.014984,293.175323 
	C393.368530,291.965240 390.156311,291.968628 387.546448,290.706573 
	C377.105164,285.657471 366.784271,280.357849 356.451843,275.086212 
	C353.237457,273.446228 350.222351,271.395813 346.952576,269.887665 
	C334.559723,264.171478 322.007812,258.793701 309.689270,252.924438 
	C295.685760,246.252335 281.897186,239.130585 267.961487,232.314072 
	C255.237122,226.090088 242.472656,219.945770 229.664841,213.895508 
	C221.739136,210.151474 213.719666,206.603119 205.704605,203.051971 
	C199.283203,200.206879 192.629745,197.829895 186.402069,194.619080 
	C180.339981,191.493683 174.700775,187.551575 168.841675,184.024918 
	C168.005997,183.521912 166.960266,183.381012 166.041016,183.001602 
	C159.209122,180.181763 152.240448,177.643494 145.591248,174.442383 
	C135.358276,169.515930 125.419075,163.981720 115.215897,158.990158 
	C107.822899,155.373352 99.408180,153.750931 93.425636,147.418945 
	C92.709541,146.661011 91.317848,146.533340 90.231445,146.134979 
	C87.622612,145.178406 84.930817,144.405991 82.411316,143.255310 
	C72.624008,138.785355 62.931999,134.103622 53.090775,129.758331 
	C51.700661,129.144531 49.681065,129.956375 47.952827,130.108353 
	C44.474323,119.409431 41.084705,108.680573 37.493797,98.019508 
	C33.419815,85.924240 29.165632,73.889671 24.948112,61.436775 
z"/>
<path fill="#F66F0F" opacity="1.000000" stroke="none" 
	d="
M47.975868,130.507019 
	C49.681065,129.956375 51.700661,129.144531 53.090775,129.758331 
	C62.931999,134.103622 72.624008,138.785355 82.411316,143.255310 
	C84.930817,144.405991 87.622612,145.178406 90.231445,146.134979 
	C91.317848,146.533340 92.709541,146.661011 93.425636,147.418945 
	C99.408180,153.750931 107.822899,155.373352 115.215897,158.990158 
	C125.419075,163.981720 135.358276,169.515930 145.591248,174.442383 
	C152.240448,177.643494 159.209122,180.181763 166.041016,183.001602 
	C166.960266,183.381012 168.005997,183.521912 168.841675,184.024918 
	C174.700775,187.551575 180.339981,191.493683 186.402069,194.619080 
	C192.629745,197.829895 199.283203,200.206879 205.704605,203.051971 
	C213.719666,206.603119 221.739136,210.151474 229.664841,213.895508 
	C242.472656,219.945770 255.237122,226.090088 267.961487,232.314072 
	C281.897186,239.130585 295.685760,246.252335 309.689270,252.924438 
	C322.007812,258.793701 334.559723,264.171478 346.952576,269.887665 
	C350.222351,271.395813 353.237457,273.446228 356.451843,275.086212 
	C366.784271,280.357849 377.105164,285.657471 387.546448,290.706573 
	C390.156311,291.968628 393.368530,291.965240 396.014984,293.175323 
	C403.256531,296.486450 410.344147,300.134155 417.768921,303.871704 
	C417.306213,312.271973 416.569183,320.449280 415.827789,328.626190 
	C415.208954,335.451202 414.585052,342.275726 413.894836,349.545532 
	C413.041534,349.718811 412.218689,349.133606 411.477905,349.223633 
	C404.045319,350.127045 398.792603,345.628387 392.916992,342.274506 
	C386.987732,338.889984 380.510956,336.476135 374.340973,333.498352 
	C369.251221,331.041901 364.332947,328.222443 359.200684,325.864075 
	C355.019989,323.943024 350.638306,322.458069 346.338104,320.799530 
	C345.409637,320.441406 344.314514,320.364929 343.522644,319.825958 
	C333.542694,313.033417 322.785675,307.902802 311.550293,303.456818 
	C303.076813,300.103790 295.256042,295.133545 287.021210,291.137787 
	C274.875122,285.244171 262.191559,280.308136 250.582672,273.518280 
	C244.372055,269.885773 236.978699,269.197113 231.606964,265.320312 
	C223.596161,259.538879 214.578629,257.162170 205.805756,253.626785 
	C200.070175,251.315414 195.075012,247.234390 189.496536,244.450287 
	C180.169708,239.795486 170.668427,235.485397 161.187973,231.145157 
	C155.719131,228.641464 149.496674,228.349426 145.255890,222.522812 
	C143.007858,219.434082 137.539581,218.111099 133.267197,217.199738 
	C125.499557,215.542786 118.726578,212.101654 112.263756,207.760651 
	C110.902565,206.846359 109.607651,205.786484 108.144402,205.078461 
	C96.845352,199.611282 85.488998,194.262192 74.204964,188.764542 
	C71.035233,187.220230 68.060631,185.170044 64.212875,187.926666 
	C58.924255,170.396652 53.961830,152.755188 49.013630,135.109711 
	C48.624657,133.722595 48.334816,132.307678 47.975868,130.507019 
z"/>
<path fill="#EE490C" opacity="1.000000" stroke="none" 
	d="
M80.914627,687.943604 
	C82.617661,676.237732 84.320686,664.531860 86.422287,652.503174 
	C95.357231,656.269165 103.936058,660.272278 112.419312,664.468506 
	C123.095222,669.749268 133.605759,675.369873 144.342255,680.521667 
	C168.477051,692.102661 192.734406,703.427979 216.889999,714.966003 
	C236.667374,724.412659 256.352844,734.051514 276.109650,743.541443 
	C300.391357,755.204956 324.712006,766.787292 349.001617,778.434448 
	C360.680328,784.034546 372.321320,789.713318 383.988708,795.337158 
	C395.675201,800.970276 407.373779,806.578308 419.066132,812.199341 
	C432.545776,818.679565 445.951813,825.319946 459.541351,831.560913 
	C464.517059,833.846130 469.926666,835.186462 475.138367,836.957825 
	C479.425751,850.138123 483.712097,863.318787 488.002808,876.497986 
	C488.300842,877.413330 488.631470,878.318115 488.481567,879.611694 
	C485.893341,879.667969 483.562073,879.794739 481.684082,878.933350 
	C474.005127,875.411316 466.427979,871.659973 458.882538,867.855957 
	C449.859985,863.307251 441.005585,858.415771 431.903503,854.036194 
	C417.087860,846.907532 402.097992,840.141968 387.242432,833.094971 
	C374.232758,826.923523 361.339539,820.506653 348.334320,814.325623 
	C335.485016,808.218628 322.524445,802.345459 309.682678,796.222961 
	C302.994995,793.034668 296.523743,789.393066 289.841217,786.193298 
	C267.216827,775.359741 244.570496,764.571045 221.877045,753.882996 
	C202.818634,744.907043 183.644211,736.177063 164.595688,727.180420 
	C153.338104,721.863464 142.223907,716.242798 131.047882,710.753357 
	C118.836693,704.755371 106.687920,698.625427 94.386932,692.817871 
	C90.087402,690.788025 85.416122,689.545593 80.914627,687.943604 
z"/>
<path fill="#EF540E" opacity="1.000000" stroke="none" 
	d="
M475.078552,836.549866 
	C469.926666,835.186462 464.517059,833.846130 459.541351,831.560913 
	C445.951813,825.319946 432.545776,818.679565 419.066132,812.199341 
	C407.373779,806.578308 395.675201,800.970276 383.988708,795.337158 
	C372.321320,789.713318 360.680328,784.034546 349.001617,778.434448 
	C324.712006,766.787292 300.391357,755.204956 276.109650,743.541443 
	C256.352844,734.051514 236.667374,724.412659 216.889999,714.966003 
	C192.734406,703.427979 168.477051,692.102661 144.342255,680.521667 
	C133.605759,675.369873 123.095222,669.749268 112.419312,664.468506 
	C103.936058,660.272278 95.357231,656.269165 86.494698,652.087708 
	C87.232986,643.079956 88.302567,634.165344 89.358124,625.249146 
	C89.608360,623.135437 89.811539,621.016113 90.319763,618.710938 
	C91.921349,619.476318 93.138512,620.632996 94.575348,621.348450 
	C100.522224,624.309875 106.551895,627.104431 112.521431,630.021057 
	C129.474258,638.304138 146.371765,646.701599 163.369217,654.891846 
	C177.264557,661.587219 191.313828,667.962830 205.220520,674.635132 
	C226.340408,684.768433 247.358582,695.113953 268.492493,705.217712 
	C281.684845,711.524719 295.078552,717.411499 308.256104,723.748413 
	C319.916504,729.355652 331.350250,735.432617 342.980042,741.105469 
	C356.720032,747.807678 370.569855,754.284424 384.358795,760.886658 
	C391.692719,764.398071 398.955872,768.059875 406.327209,771.489990 
	C416.821533,776.373474 427.392181,781.092529 437.918396,785.907837 
	C446.645966,789.900391 455.356323,793.930603 464.074310,797.944092 
	C467.722443,810.676697 471.370575,823.409302 475.078552,836.549866 
z"/>
<path fill="#F37214" opacity="1.000000" stroke="none" 
	d="
M95.165718,563.992188 
	C95.789001,554.286865 96.412285,544.581543 97.284050,534.154419 
	C99.271774,529.429260 101.903526,530.454102 104.898628,531.911133 
	C121.928001,540.195374 138.991608,548.409607 156.068390,556.595764 
	C166.555161,561.622864 177.119614,566.488342 187.589935,571.549072 
	C204.630386,579.785400 221.603455,588.161194 238.640106,596.405518 
	C255.243149,604.440063 271.893219,612.377380 288.517151,620.368835 
	C304.223450,627.919189 319.889160,635.554932 335.633698,643.024536 
	C353.941986,651.710510 372.351868,660.182434 390.650940,668.887573 
	C404.459656,675.456543 418.135925,682.304260 431.956604,688.847412 
	C433.348053,689.506226 435.330902,688.916016 437.039307,688.905457 
	C439.024750,697.460693 441.005859,706.017029 442.997528,714.570801 
	C443.978210,718.782593 444.978485,722.989868 445.557922,727.675110 
	C442.965271,727.789673 440.641083,727.787048 438.636658,726.985107 
	C435.407837,725.693359 432.437714,723.772156 429.274750,722.295776 
	C415.295410,715.770386 401.218781,709.449890 387.304047,702.790588 
	C367.835876,693.473511 348.508179,683.863281 329.065186,674.492981 
	C319.032684,669.658020 308.821167,665.193848 298.796967,660.342224 
	C283.573822,652.974426 268.489319,645.320007 253.259491,637.966248 
	C239.946609,631.538025 226.502014,625.383118 213.138931,619.058228 
	C201.756363,613.670837 190.429779,608.164917 179.036224,602.801086 
	C168.512741,597.846802 157.843155,593.195312 147.402054,588.075684 
	C135.480820,582.230286 123.841240,575.806396 111.876564,570.055603 
	C106.562485,567.501404 100.751274,565.981567 95.165718,563.992188 
z"/>
<path fill="#ED3C0A" opacity="1.000000" stroke="none" 
	d="
M80.578621,688.174622 
	C85.416122,689.545593 90.087402,690.788025 94.386932,692.817871 
	C106.687920,698.625427 118.836693,704.755371 131.047882,710.753357 
	C142.223907,716.242798 153.338104,721.863464 164.595688,727.180420 
	C183.644211,736.177063 202.818634,744.907043 221.877045,753.882996 
	C244.570496,764.571045 267.216827,775.359741 289.841217,786.193298 
	C296.523743,789.393066 302.994995,793.034668 309.682678,796.222961 
	C322.524445,802.345459 335.485016,808.218628 348.334320,814.325623 
	C361.339539,820.506653 374.232758,826.923523 387.242432,833.094971 
	C402.097992,840.141968 417.087860,846.907532 431.903503,854.036194 
	C441.005585,858.415771 449.859985,863.307251 458.882538,867.855957 
	C466.427979,871.659973 474.005127,875.411316 481.684082,878.933350 
	C483.562073,879.794739 485.893341,879.667969 488.424896,879.995117 
	C492.634888,891.425171 496.436249,902.855591 499.825989,914.550537 
	C490.673676,910.426758 482.002777,905.892212 473.178009,901.680054 
	C453.850128,892.454834 434.412109,883.460449 415.079376,874.245239 
	C396.181152,865.236877 377.345825,856.096130 358.506073,846.965759 
	C346.981628,841.380615 335.497681,835.711975 324.001465,830.068787 
	C316.698608,826.484131 309.455475,822.773682 302.099152,819.302795 
	C288.143799,812.718262 274.064850,806.393433 260.154724,799.716003 
	C249.523926,794.612793 239.129181,789.019409 228.525421,783.857788 
	C220.817581,780.105774 212.889160,776.808960 205.151855,773.114868 
	C197.200974,769.318726 189.439743,765.121643 181.458115,761.394226 
	C167.593674,754.919556 153.546265,748.834412 139.717636,742.286011 
	C123.211220,734.469482 106.897896,726.245605 90.404091,718.401733 
	C85.835121,716.228943 80.922241,714.779419 76.167160,712.998047 
	C77.525642,704.800598 78.884132,696.603088 80.578621,688.174622 
z"/>
<path fill="#F16511" opacity="1.000000" stroke="none" 
	d="
M95.093994,564.445312 
	C100.751274,565.981567 106.562485,567.501404 111.876564,570.055603 
	C123.841240,575.806396 135.480820,582.230286 147.402054,588.075684 
	C157.843155,593.195312 168.512741,597.846802 179.036224,602.801086 
	C190.429779,608.164917 201.756363,613.670837 213.138931,619.058228 
	C226.502014,625.383118 239.946609,631.538025 253.259491,637.966248 
	C268.489319,645.320007 283.573822,652.974426 298.796967,660.342224 
	C308.821167,665.193848 319.032684,669.658020 329.065186,674.492981 
	C348.508179,683.863281 367.835876,693.473511 387.304047,702.790588 
	C401.218781,709.449890 415.295410,715.770386 429.274750,722.295776 
	C432.437714,723.772156 435.407837,725.693359 438.636658,726.985107 
	C440.641083,727.787048 442.965271,727.789673 445.488708,728.071106 
	C446.890381,732.192444 447.901978,736.406433 449.018219,740.592407 
	C451.211121,748.815918 453.462158,757.023865 455.394104,765.579956 
	C443.137604,760.147705 431.161407,754.404175 419.218353,748.592529 
	C403.095306,740.746948 387.029724,732.782776 370.880920,724.990906 
	C352.333160,716.041443 333.738831,707.187866 315.127350,698.371582 
	C309.119354,695.525574 302.912842,693.094177 296.936493,690.186646 
	C280.973053,682.420471 265.132538,674.401062 249.153275,666.667969 
	C234.803482,659.723389 220.295288,653.106567 205.927460,646.198547 
	C187.036026,637.115601 168.242844,627.828247 149.351578,618.744934 
	C135.885880,612.270264 122.459595,605.681335 108.741325,599.781433 
	C103.831749,597.669922 99.598900,592.414978 93.166000,594.996155 
	C93.784760,584.963562 94.403519,574.931030 95.093994,564.445312 
z"/>
<path fill="#F05D10" opacity="1.000000" stroke="none" 
	d="
M93.080231,595.410645 
	C99.598900,592.414978 103.831749,597.669922 108.741325,599.781433 
	C122.459595,605.681335 135.885880,612.270264 149.351578,618.744934 
	C168.242844,627.828247 187.036026,637.115601 205.927460,646.198547 
	C220.295288,653.106567 234.803482,659.723389 249.153275,666.667969 
	C265.132538,674.401062 280.973053,682.420471 296.936493,690.186646 
	C302.912842,693.094177 309.119354,695.525574 315.127350,698.371582 
	C333.738831,707.187866 352.333160,716.041443 370.880920,724.990906 
	C387.029724,732.782776 403.095306,740.746948 419.218353,748.592529 
	C431.161407,754.404175 443.137604,760.147705 455.456482,765.946472 
	C458.548828,776.365479 461.283752,786.759521 464.046478,797.548828 
	C455.356323,793.930603 446.645966,789.900391 437.918396,785.907837 
	C427.392181,781.092529 416.821533,776.373474 406.327209,771.489990 
	C398.955872,768.059875 391.692719,764.398071 384.358795,760.886658 
	C370.569855,754.284424 356.720032,747.807678 342.980042,741.105469 
	C331.350250,735.432617 319.916504,729.355652 308.256104,723.748413 
	C295.078552,717.411499 281.684845,711.524719 268.492493,705.217712 
	C247.358582,695.113953 226.340408,684.768433 205.220520,674.635132 
	C191.313828,667.962830 177.264557,661.587219 163.369217,654.891846 
	C146.371765,646.701599 129.474258,638.304138 112.521431,630.021057 
	C106.551895,627.104431 100.522224,624.309875 94.575348,621.348450 
	C93.138512,620.632996 91.921349,619.476318 90.384476,618.271667 
	C90.777809,612.365723 91.357201,606.706726 92.021217,601.057739 
	C92.227875,599.299683 92.663612,597.568604 93.080231,595.410645 
z"/>
<path fill="#EC3809" opacity="1.000000" stroke="none" 
	d="
M76.096466,713.405762 
	C80.922241,714.779419 85.835121,716.228943 90.404091,718.401733 
	C106.897896,726.245605 123.211220,734.469482 139.717636,742.286011 
	C153.546265,748.834412 167.593674,754.919556 181.458115,761.394226 
	C189.439743,765.121643 197.200974,769.318726 205.151855,773.114868 
	C212.889160,776.808960 220.817581,780.105774 228.525421,783.857788 
	C239.129181,789.019409 249.523926,794.612793 260.154724,799.716003 
	C274.064850,806.393433 288.143799,812.718262 302.099152,819.302795 
	C309.455475,822.773682 316.698608,826.484131 324.001465,830.068787 
	C335.497681,835.711975 346.981628,841.380615 358.506073,846.965759 
	C377.345825,856.096130 396.181152,865.236877 415.079376,874.245239 
	C434.412109,883.460449 453.850128,892.454834 473.178009,901.680054 
	C482.002777,905.892212 490.673676,910.426758 499.766724,914.888733 
	C502.723175,920.936462 505.379364,926.888611 507.902710,932.896606 
	C508.764069,934.947571 509.291840,937.138733 509.909058,939.650757 
	C507.796448,940.207520 505.383545,941.171936 503.754639,940.425537 
	C490.774841,934.477478 477.911224,928.271545 465.076599,922.012146 
	C453.581787,916.406067 442.255859,910.448425 430.699402,904.975281 
	C414.214996,897.168396 397.510529,889.825195 381.043610,881.982544 
	C363.803162,873.771484 346.805359,865.050781 329.562500,856.844971 
	C317.566711,851.136230 305.262726,846.077332 293.235535,840.431763 
	C284.682495,836.416870 276.389191,831.852112 267.927765,827.637512 
	C260.489075,823.932434 252.974258,820.380371 245.499512,816.747437 
	C221.107605,804.892151 196.789688,792.881531 172.304428,781.222351 
	C154.778748,772.877136 136.966263,765.135681 119.407066,756.858948 
	C109.943405,752.398193 100.800346,747.261963 91.403793,742.652344 
	C85.313042,739.664490 79.025620,737.077515 72.504089,734.159973 
	C72.134636,733.556519 72.087402,733.104004 72.256165,732.147705 
	C72.664619,731.411438 72.829147,731.160706 72.965729,730.891663 
	C73.985748,725.198914 75.005768,719.506165 76.096466,713.405762 
z"/>
<path fill="#F48216" opacity="1.000000" stroke="none" 
	d="
M98.100708,460.467102 
	C97.350189,469.102631 103.949486,471.796753 110.570900,474.853394 
	C128.053864,482.924133 145.468491,491.148468 162.803329,499.532898 
	C178.040497,506.902740 193.099274,514.640747 208.304489,522.077759 
	C215.018311,525.361572 221.935822,528.226440 228.695129,531.420532 
	C236.492554,535.105286 244.204727,538.969910 251.976715,542.709045 
	C264.248077,548.612854 276.552246,554.448608 288.816772,560.366577 
	C300.476044,565.992493 312.057678,571.781067 323.752838,577.330811 
	C345.067780,587.445374 366.474854,597.366150 387.773926,607.513672 
	C396.176300,611.516907 404.308899,616.089111 412.735168,620.037781 
	C416.074554,621.602722 419.877991,622.177490 423.790253,623.078613 
	C425.217621,627.618835 426.498077,632.250610 427.391571,636.955933 
	C428.728088,643.994629 429.792419,651.084900 430.556335,658.497498 
	C415.150085,651.714417 400.140778,644.627197 385.175995,637.447266 
	C372.928070,631.570862 360.775360,625.494995 348.499969,619.677368 
	C340.391113,615.834351 332.050476,612.476624 323.972565,608.572815 
	C310.828491,602.220642 297.873840,595.476318 284.726898,589.130310 
	C274.096436,583.999023 263.218018,579.380249 252.601639,574.221252 
	C242.293442,569.211975 232.301468,563.546387 221.953293,558.626099 
	C201.253677,548.784058 180.348068,539.375732 159.636307,529.558838 
	C141.919220,521.161316 124.402489,512.340576 106.665611,503.986267 
	C104.220459,502.834564 101.017151,503.292450 98.164841,503.005157 
	C98.119827,488.980469 98.074814,474.955811 98.100708,460.467102 
z"/>
<path fill="#F67711" opacity="1.000000" stroke="none" 
	d="
M98.093094,503.468018 
	C101.017151,503.292450 104.220459,502.834564 106.665611,503.986267 
	C124.402489,512.340576 141.919220,521.161316 159.636307,529.558838 
	C180.348068,539.375732 201.253677,548.784058 221.953293,558.626099 
	C232.301468,563.546387 242.293442,569.211975 252.601639,574.221252 
	C263.218018,579.380249 274.096436,583.999023 284.726898,589.130310 
	C297.873840,595.476318 310.828491,602.220642 323.972565,608.572815 
	C332.050476,612.476624 340.391113,615.834351 348.499969,619.677368 
	C360.775360,625.494995 372.928070,631.570862 385.175995,637.447266 
	C400.140778,644.627197 415.150085,651.714417 430.487122,658.923584 
	C432.260895,667.281250 433.632874,675.567322 435.164642,683.823669 
	C435.443848,685.328674 436.375092,686.712769 437.022308,688.529053 
	C435.330902,688.916016 433.348053,689.506226 431.956604,688.847412 
	C418.135925,682.304260 404.459656,675.456543 390.650940,668.887573 
	C372.351868,660.182434 353.941986,651.710510 335.633698,643.024536 
	C319.889160,635.554932 304.223450,627.919189 288.517151,620.368835 
	C271.893219,612.377380 255.243149,604.440063 238.640106,596.405518 
	C221.603455,588.161194 204.630386,579.785400 187.589935,571.549072 
	C177.119614,566.488342 166.555161,561.622864 156.068390,556.595764 
	C138.991608,548.409607 121.928001,540.195374 104.898628,531.911133 
	C101.903526,530.454102 99.271774,529.429260 97.349640,533.698853 
	C97.451614,523.953613 97.736473,513.942261 98.093094,503.468018 
z"/>
<path fill="#F65908" opacity="1.000000" stroke="none" 
	d="
M445.351257,156.951920 
	C445.192932,156.277267 445.345917,155.435684 445.661987,154.315063 
	C445.770935,154.952347 445.716766,155.868668 445.351257,156.951920 
z"/>
<path fill="#F65908" opacity="1.000000" stroke="none" 
	d="
M444.330475,160.985382 
	C444.201813,160.582474 444.361542,160.038849 444.679169,159.257385 
	C444.764343,159.627914 444.691620,160.236282 444.330475,160.985382 
z"/>
<path fill="#EC3108" opacity="1.000000" stroke="none" 
	d="
M72.724472,730.984375 
	C72.829147,731.160706 72.664619,731.411438 72.320518,731.810547 
	C72.273651,731.677185 72.378426,731.377197 72.724472,730.984375 
z"/>
<path fill="#E70A01" opacity="1.000000" stroke="none" 
	d="
M48.110630,834.282104 
	C48.341980,834.262756 48.389614,834.497986 48.234947,834.865540 
	C48.166832,834.974365 48.061111,834.513367 48.110630,834.282104 
z"/>
</svg>