<?xml version="1.0" encoding="utf-8"?>
<svg class="icon icon-list" viewBox="0 0 12.5 9.5" xmlns="http://www.w3.org/2000/svg"><defs/><g data-name="Layer 2" id="Layer_2"><g data-name="Layer 1" id="Layer_1-2"><g data-name="shop page" id="shop_page"><g id="Group-16"><path d="M12.5.75a.76.76 0 01-.75.75h-11A.76.76 0 010 .75.76.76 0 01.75 0h11a.76.76 0 01.75.75z" fill="#FFFFFF" id="Rectangle"/><path d="M12.5 4.75a.76.76 0 01-.75.75h-11A.76.76 0 010 4.75.76.76 0 01.75 4h11a.76.76 0 01.75.75z" data-name="Rectangle" fill="#FFFFFF" id="Rectangle-2"/><path d="M12.5 8.75a.76.76 0 01-.75.75h-11A.76.76 0 010 8.75.76.76 0 01.75 8h11a.76.76 0 01.75.75z" data-name="Rectangle" fill="#FFFFFF" id="Rectangle-3"/></g></g></g></g></svg>