<?xml version="1.0" encoding="utf-8"?>
<svg class="icon icon-col-4" viewBox="0 0 13.5 12.5" xmlns="http://www.w3.org/2000/svg"><defs/><g data-name="Layer 2" id="Layer_2"><g data-name="Layer 1" id="Layer_1-2"><g data-name="shop page" id="shop_page"><g data-name="4_col" id="_4_col"><path d="M.75 0a.76.76 0 01.75.75v11a.76.76 0 01-.75.75.76.76 0 01-.75-.75v-11A.76.76 0 01.75 0z" fill="#FFFFFF" id="Rectangle"/><path d="M4.75 0a.76.76 0 01.75.75v11a.76.76 0 01-.75.75.76.76 0 01-.75-.75v-11A.76.76 0 014.75 0z" data-name="Rectangle" fill="#FFFFFF" id="Rectangle-2"/><path d="M8.75 0a.76.76 0 01.75.75v11a.76.76 0 01-.75.75.76.76 0 01-.75-.75v-11A.76.76 0 018.75 0z" data-name="Rectangle" fill="#FFFFFF" id="Rectangle-3"/><path d="M12.75 0a.76.76 0 01.75.75v11a.76.76 0 01-.75.75.76.76 0 01-.75-.75v-11a.76.76 0 01.75-.75z" data-name="Rectangle" fill="#FFFFFF" id="Rectangle-4"/></g></g></g></g></svg>